<svg width="1024" height="1024" xmlns="http://www.w3.org/2000/svg">

 <g>
  <title>background</title>
  <rect fill="none" id="canvas_background" height="402" width="582" y="-1" x="-1"/>
 </g>
 <g>
  <title>Layer 1</title>
  <path fill="#545454" id="svg_1" d="m732.448238,523.853433l-64,0l0,128l64,0l0,-128zm-128,0l-64,0l0,128l64,0l0,-128zm128,-192l-64,0l0,128l64,0l0,-128zm128,192l-64,0l0,128l64,0l0,-128zm-256,192l-64,0l0,128l64,0l0,-128zm192,-704l-64,0l0,128l64,0l0,-128zm-512,0l-64,0l0,128l64,0l0,-128zm576,320l-64,0l0,128l64,0l0,-128zm-256,0l-64,0l0,128l64,0l0,-128zm-256,384l-64,0l0,128l64,0l0,-128zm-128,-192l-64,0l0,128l64,0l0,-128zm128,0l-64,0l0,128l64,0l0,-128zm512,-448l0,128l-192,0l0,-128l-320,0l0,128l-192,0l0,-128l-128,0l0,896l960,0l0,-896l-128,0zm64,832l-832,0l0,-640l832,0l0,640zm-704,-192l-64,0l0,128l64,0l0,-128zm256,-384l-64,0l0,128l64,0l0,-128zm0,384l-64,0l0,128l64,0l0,-128zm-128,-384l-64,0l0,128l64,0l0,-128zm128,192l-64,0l0,128l64,0l0,-128zm256,192l-64,0l0,128l64,0l0,-128z"/>
 </g>
</svg>