<svg width="48" height="48" xmlns="http://www.w3.org/2000/svg">

 <g>
  <title>background</title>
  <rect fill="none" id="canvas_background" height="402" width="582" y="-1" x="-1"/>
 </g>
 <g>
  <title>Layer 1</title>
  <path id="svg_1" fill="#545454" d="m45.55,16.744l-1.686,0c-1.297,0 -2.346,1.048 -2.346,2.345c0,0.152 0.06,0.284 0.088,0.428l-0.019,0.008l-6.102,-13.987l-0.004,0.004c-0.347,-0.865 -1.183,-1.479 -2.172,-1.479l-18.632,0c-0.849,0 -1.559,0.472 -1.971,1.15c-0.005,-0.002 -0.038,-0.009 -0.038,-0.009l-0.083,0.187c-0.033,0.067 -0.062,0.128 -0.088,0.197l-6.017,13.494c-0.003,-1.292 -1.05,-2.338 -2.344,-2.338l-1.686,0c-1.296,0 -2.345,1.048 -2.345,2.345c0,1.116 0.797,2.007 1.842,2.244l0.019,0.052l3.294,0.504c-0.048,0.169 -0.097,0.343 -0.097,0.531l0,9.235l0,0.221l0,3.078c0,1.049 0.7,1.906 1.649,2.203l0,4.436c0,1.297 1.051,2.345 2.346,2.345l2.394,0c1.295,0 2.345,-1.048 2.345,-2.345l0,-4.293l20.243,0l0,4.293c0,1.297 1.051,2.345 2.345,2.345l2.396,0c1.294,0 2.346,-1.048 2.346,-2.345l0,-4.472c0.858,-0.349 1.467,-1.183 1.467,-2.167l0,-3.078l0,-0.221l0,-9.235c0,-0.184 -0.049,-0.344 -0.094,-0.508l3.438,-0.527l0.018,-0.052c1.045,-0.237 1.842,-1.128 1.842,-2.244c-0.002,-1.297 -1.052,-2.345 -2.348,-2.345zm-36.097,2.914l4.982,-11.936l0.039,-0.001c0.279,-0.985 1.146,-1.72 2.22,-1.72l14.466,0c1.075,0 1.94,0.732 2.22,1.717l0.037,0.004l4.947,11.936l-28.911,0z"/>
 </g>
</svg>