<svg width="18" height="23" xmlns="http://www.w3.org/2000/svg">
 <title/>
 <desc/>

 <g>
  <title>background</title>
  <rect fill="none" id="canvas_background" height="402" width="582" y="-1" x="-1"/>
 </g>
 <g>
  <title>Layer 1</title>
  <path fill="#545454" id="Shape" d="m16,0.5l-14,0c-1.1,0 -2,0.9 -2,2l0,14c0,1.1 0.9,2 2,2l4,0l3,3l3,-3l4,0c1.1,0 2,-0.9 2,-2l0,-14c0,-1.1 -0.9,-2 -2,-2l0,0zm-6,16l-2,0l0,-2l2,0l0,2l0,0zm2.1,-7.7l-0.9,0.9c-0.8,0.7 -1.2,1.3 -1.2,2.8l-2,0l0,-0.5c0,-1.1 0.4,-2.1 1.2,-2.8l1.2,-1.3c0.4,-0.3 0.6,-0.8 0.6,-1.4c0,-1.1 -0.9,-2 -2,-2c-1.1,0 -2,0.9 -2,2l-2,0c0,-2.2 1.8,-4 4,-4c2.2,0 4,1.8 4,4c0,0.9 -0.4,1.7 -0.9,2.3l0,0z"/>
 </g>
</svg>