<svg width="24" height="24" xmlns="http://www.w3.org/2000/svg">

 <g>
  <title>background</title>
  <rect fill="none" id="canvas_background" height="402" width="582" y="-1" x="-1"/>
 </g>
 <g>
  <title>Layer 1</title>
  <path fill="#545454" id="svg_1" d="m23,4l-4,0l0,-3c0,-0.6 -0.4,-1 -1,-1l-12,0c-0.6,0 -1,0.4 -1,1l0,3l-4,0c-0.6,0 -1,0.4 -1,1l0,18c0,0.6 0.4,1 1,1l22,0c0.6,0 1,-0.4 1,-1l0,-18c0,-0.6 -0.4,-1 -1,-1zm-16,-2l10,0l0,2l-10,0l0,-2zm5,13c-0.4,0 -0.7,0.1 -1,0.3l0,-9.3l2,0l0,9.3c-0.3,-0.2 -0.6,-0.3 -1,-0.3zm1,2c0,0.6 -0.4,1 -1,1s-1,-0.4 -1,-1s0.4,-1 1,-1s1,0.4 1,1zm-11,-11l8,0l0,8l-8,0l0,-8zm20,16l-20,0l0,-7l8,0l0,2c0,1.1 0.9,2 2,2s2,-0.9 2,-2l0,-2l8,0l0,7zm0,-8l-8,0l0,-8l8,0l0,8z"/>
 </g>
</svg>