<svg width="21.42" height="21.401" xmlns="http://www.w3.org/2000/svg">

 <g>
  <title>background</title>
  <rect fill="none" id="canvas_background" height="402" width="582" y="-1" x="-1"/>
 </g>
 <g>
  <title>Layer 1</title>
  <path id="svg_1" fill="#545454" d="m3.999,0.278l0,1.788c0,0.169 0.142,0.325 0.312,0.346l0,0l1.452,0.165c0.171,0.019 0.386,0.153 0.476,0.299l0,0l0.846,1.345c0.092,0.145 0.12,0.398 0.061,0.559l0,0l-0.282,0.812c-0.057,0.163 -0.203,0.394 -0.324,0.516l0,0l-0.485,0.485c-0.123,0.122 -0.355,0.269 -0.516,0.326l0,0l-0.813,0.284c-0.162,0.055 -0.415,0.028 -0.56,-0.065l0,0l-1.345,-0.842c-0.146,-0.095 -0.281,-0.31 -0.301,-0.479l0,0l-0.175,-1.578c-0.02,-0.171 -0.034,-0.313 -0.034,-0.314l0,0c0.003,-0.003 0.003,-0.008 0,-0.012l0,0c-0.004,-0.005 -0.149,-0.007 -0.321,-0.007l0,0l-1.712,0c-0.171,0 -0.295,0.142 -0.276,0.311l0,0l0.317,2.827c0.02,0.171 0.153,0.387 0.3,0.477l0,0l3.207,2.016c0.146,0.092 0.396,0.119 0.559,0.064l0,0l1.794,-0.627c0.161,-0.059 0.395,-0.007 0.517,0.116l0,0l5.625,5.623c0.121,0.123 0.173,0.356 0.119,0.518l0,0l-0.629,1.793c-0.056,0.163 -0.029,0.415 0.064,0.562l0,0l2.014,3.203c0.089,0.148 0.308,0.282 0.476,0.303l0,0l2.745,0.309c0.171,0.02 0.311,-0.104 0.311,-0.278l0,0l0,-1.783c0,-0.173 -0.14,-0.33 -0.311,-0.351l0,0l-1.452,-0.162c-0.174,-0.018 -0.387,-0.155 -0.479,-0.301l0,0l-0.845,-1.344c-0.09,-0.147 -0.117,-0.398 -0.064,-0.561l0,0l0.525,-1.498c0.057,-0.163 0.238,-0.344 0.398,-0.397l0,0l1.5,-0.526c0.162,-0.058 0.413,-0.029 0.561,0.064l0,0l1.342,0.845c0.146,0.09 0.283,0.306 0.302,0.475l0,0l0.175,1.58c0.02,0.17 0.035,0.311 0.035,0.314l0,0c-0.005,0.003 -0.002,0.008 0,0.01l0,0c0.003,0.005 0.148,0.008 0.319,0.008l0,0l1.712,0c0.173,0 0.296,-0.14 0.278,-0.312l0,0l-0.317,-2.829c-0.019,-0.171 -0.153,-0.387 -0.3,-0.478l0,0l-3.207,-2.013c-0.145,-0.092 -0.397,-0.121 -0.56,-0.064l0,0l-1.791,0.628c-0.165,0.058 -0.396,0.005 -0.519,-0.116l0,0l-5.625,-5.625c-0.122,-0.122 -0.173,-0.354 -0.118,-0.516l0,0l0.63,-1.794c0.055,-0.164 0.027,-0.417 -0.066,-0.562l0,0l-2.015,-3.205c-0.089,-0.146 -0.305,-0.279 -0.477,-0.3l0,0l-2.741,-0.309c-0.012,-0.001 -0.025,-0.001 -0.037,-0.001c-0.153,0 -0.275,0.118 -0.275,0.278l0,0z"/>
 </g>
</svg>